<?xml version="1.0" encoding="iso-8859-1"?>
<!-- Uploaded to: SVG Repo, www.svgrepo.com, Generator: SVG Repo Mixer Tools -->
<!DOCTYPE svg PUBLIC "-//W3C//DTD SVG 1.1//EN" "http://www.w3.org/Graphics/SVG/1.1/DTD/svg11.dtd">
<svg fill="#000000" version="1.1" id="Capa_1" xmlns="http://www.w3.org/2000/svg" xmlns:xlink="http://www.w3.org/1999/xlink" 
	 width="20px" height="20px" viewBox="0 0 192.944 192.944"
	 xml:space="preserve">
<g>
	<path d="M166.459,93.844c3.751-6.913,7.823-15.802,4.378-23.325c-2.511-5.484-9.077-8.273-14.931-10.289
		c2.203-3.275,2.709-7.63,2.015-11.503c-1.045-5.828-6.057-9.167-11.386-10.561c-3.783-0.989-7.561,0.42-7.497,4.772
		c0.045,3.108,2.824,7.345,2.705,10.698c-1.483-1.748-4.021-2.862-5.927-3.659c-2.645-1.105-6.17-1.337-8.566,0.462
		c-3.036,2.281-3.887,6.775-2.865,10.279c0.52,1.783,1.645,3.265,2.713,4.744c0.256,0.355,0.465,0.653,0.668,0.953
		c-2.678-1.458-5.494-1.489-9.215,0.102c-9.933,4.246-17.373-3.338-27.823,0.56c-4.547,1.696-8.992,4.835-13.245,7.174
		c-14.228,7.824-26.696-1.931-37.988-8.712c-6.71-4.03-14.303-8.324-22.356-7.278c-15.173,1.971-0.415,16.86,4.884,19.562
		c9.316,4.752,15.101,8.863,25.473,12.138c14.857,4.691,20.871,14.74,20.475,26.01c-3.733,0.008-7.547,0.56-11.312,1.163
		c-2.185-11.515-9.431-23.298-20.486-24.086c-10.429-7.551-24.713,6.34-30.28,15.628c-8.841,14.751-9.31,37.456,9.623,44.253
		c19.058,6.842,36.94-3.135,41.271-22.843c0.348-1.585,0.53-3.309,0.572-5.106c3.122-0.28,6.228-0.639,9.309-1.005
		c-1.24,4.429-3.301,8.896-6.113,13.173c-0.657,1,0.43,2.434,1.572,2.044c0.385-0.131,0.724-0.31,1.088-0.463
		c0.117,0.067,0.176,0.181,0.321,0.222c17.665,4.982,39.924,5.272,58.187,4.426c2.285-0.106,4.485-2.351,3.627-4.764
		c-3.383-9.514,1.574-22.966,10.517-28.458c-6.455,17.392,6.084,34.641,22.772,39.248c16.666,4.604,31.862-7.721,34.053-24.002
		C194.969,108.498,181.521,97.048,166.459,93.844z M22.112,144.428c-22.252-4.621-10.225-39.135,5.662-43.767
		c0.208,0.181,0.402,0.37,0.666,0.514c5.048,2.761,10.177,3.129,14.371,7.534c2.486,2.611,3.706,6.092,4.221,9.679
		c-2.065,0.173-4.135,0.303-6.201,0.349c-2.416,0.055-4.972-0.938-7.279-0.088c-0.84,0.311-1.369,1.084-1.134,1.997
		c1.307,5.085,9.719,4.882,13.809,4.896c0.342,0.001,0.692-0.026,1.035-0.029C46.377,139.143,35.092,147.124,22.112,144.428z
		 M117.071,135.902c-15.415-0.224-32.865-4.342-47.854-1.484c6.439-7.384,6.464-20.207,4.547-29.382
		c-4.25-20.344-28.193-19.23-42.123-27.958c-3.478-2.179-6.413-4.385-10.1-6.276c-1.121-7.218,1.249-8.616,7.11-4.195
		c1.988,0.945,3.933,1.972,5.833,3.084c8.871,4.954,19.046,13.7,29.921,13.489c11.891-0.231,30.556-15.068,40.877-8.98
		c6.175,3.643,17.728-5.09,21.844-0.834c1.894,1.96,4.539,0.37,4.955-1.684c1.56-1.598,1.967-3.844,1.45-6.197
		c-0.654-2.98-3.475-5.125-3.432-8.277c0.039-2.964,1.176-3.36,3.816-2.487c2.537,0.838,4.48,3.111,7.211,3.362
		c0.383,0.035,0.696-0.1,0.969-0.294c0.605,0.425,1.403,0.482,2.034-0.271c3.765-4.488,0.418-9.47,0.162-14.421
		c0.017,0.002,0.022,0.003,0.041,0.005c0.92,0.125,1.824,0.464,2.7,0.753c2.339,0.774,4.174,2.375,5.111,4.671
		c1.75,4.285-0.502,7.79-2.527,11.38c-1.126,1.997,1.154,4.618,3.227,3.353c3.53,2.498,7.277,4.692,10.496,7.602
		c6.902,6.242-1.123,14.569-2.344,21.533c-6.828-2.903-14.775,2.648-20.061,9.232c-0.478-0.125-0.996-0.168-1.574-0.051
		C125.51,104.393,115.379,121.813,117.071,135.902z M164.995,140.368c-12.458,0.314-21.19-11.332-21.14-22.818
		c0.033-7.449,7.082-16.725,14.742-17.903c0.485,0.751,1.172,1.382,2.137,1.69c9.918,3.161,19.43,5.931,22.259,17.303
		C185.84,130.082,175.655,140.098,164.995,140.368z"/>
</g>
</svg>