<svg xmlns="http://www.w3.org/2000/svg" viewBox="0 0 64 64" xml:space="preserve" style="fill-rule:evenodd;clip-rule:evenodd;stroke-linecap:round;stroke-linejoin:round;stroke-miterlimit:2"><path d="M25 29c0-3.863 3.137-7 7-7s7 3.137 7 7c0-3.863 3.137-7 7-7s7 3.137 7 7c0-11.59-9.41-21-21-21s-21 9.41-21 21c0-3.863 3.137-7 7-7s7 3.137 7 7M40 41a3 3 0 0 0-3-3H27a3 3 0 0 0-3 3v7.051a7.5 7.5 0 0 0 4.425 6.841L32 56.5l3.575-1.608A7.5 7.5 0 0 0 40 48.051V41z" style="fill:none;stroke:#222a33;stroke-width:2px"/><path d="m28.75 46.748 2.5 2 4-3.5M32 22v13M25 26.5S22.918 17.082 32 8M38.897 26.5s1.385-6.263-3.03-13.5" style="fill:none;stroke:#222a33;stroke-width:2px"/></svg>